<svg width="1200" height="200" viewBox="0 0 1200 200" xmlns="http://www.w3.org/2000/svg">
  <!-- GENTLE & KIND in pixel art style -->
  <g fill="#000000">
    <!-- G -->
    <rect x="20" y="40" width="60" height="20"/>
    <rect x="20" y="60" width="20" height="80"/>
    <rect x="20" y="140" width="60" height="20"/>
    <rect x="60" y="120" width="20" height="20"/>
    <rect x="60" y="100" width="40" height="20"/>
    <rect x="80" y="60" width="20" height="20"/>
    
    <!-- E -->
    <rect x="120" y="40" width="60" height="20"/>
    <rect x="120" y="60" width="20" height="80"/>
    <rect x="120" y="140" width="60" height="20"/>
    <rect x="120" y="90" width="40" height="20"/>
    
    <!-- N -->
    <rect x="200" y="40" width="20" height="120"/>
    <rect x="220" y="60" width="20" height="20"/>
    <rect x="240" y="80" width="20" height="20"/>
    <rect x="260" y="100" width="20" height="20"/>
    <rect x="280" y="40" width="20" height="120"/>
    
    <!-- T -->
    <rect x="320" y="40" width="80" height="20"/>
    <rect x="350" y="60" width="20" height="100"/>
    
    <!-- L -->
    <rect x="420" y="40" width="20" height="120"/>
    <rect x="420" y="140" width="60" height="20"/>
    
    <!-- E -->
    <rect x="500" y="40" width="60" height="20"/>
    <rect x="500" y="60" width="20" height="80"/>
    <rect x="500" y="140" width="60" height="20"/>
    <rect x="500" y="90" width="40" height="20"/>
    
    <!-- & -->
    <rect x="600" y="60" width="40" height="20"/>
    <rect x="600" y="80" width="20" height="20"/>
    <rect x="620" y="100" width="20" height="20"/>
    <rect x="600" y="120" width="20" height="20"/>
    <rect x="620" y="140" width="40" height="20"/>
    <rect x="640" y="80" width="20" height="20"/>
    <rect x="660" y="100" width="20" height="40"/>
    <rect x="640" y="120" width="20" height="20"/>
    
    <!-- K -->
    <rect x="720" y="40" width="20" height="120"/>
    <rect x="760" y="40" width="20" height="40"/>
    <rect x="740" y="80" width="20" height="20"/>
    <rect x="760" y="100" width="20" height="60"/>
    
    <!-- I -->
    <rect x="820" y="40" width="60" height="20"/>
    <rect x="840" y="60" width="20" height="80"/>
    <rect x="820" y="140" width="60" height="20"/>
    
    <!-- N -->
    <rect x="900" y="40" width="20" height="120"/>
    <rect x="920" y="60" width="20" height="20"/>
    <rect x="940" y="80" width="20" height="20"/>
    <rect x="960" y="100" width="20" height="20"/>
    <rect x="980" y="40" width="20" height="120"/>
    
    <!-- D -->
    <rect x="1020" y="40" width="60" height="20"/>
    <rect x="1020" y="60" width="20" height="80"/>
    <rect x="1020" y="140" width="60" height="20"/>
    <rect x="1080" y="60" width="20" height="80"/>
  </g>
</svg>
